PathFileType	4	(X/Y/Z)	 s11c0101.trc
DataRate	CameraRate	NumFrames	NumMarkers	Units	OrigDataRate	OrigDataStartFrame	OrigNumFrames
200	200	7	48	mm	200	1001	2000
Frame#	Time	racr			lacr			c7			jug			rlel			rdr			llel			ldr			s2			lic			ric			lasi			rasi			rpsi			lpsi			rgt			lgt			rth1			rth2			rth3			rth4			rlfc			rmfc			rsh1			rsh2			rsh3			rsh4			rlmal			rcal			rtoe			rmt5			lth1			lth2			lth4			lth3			llfc			lmfc			llmal			lcal			lmt5			lsh1			lsh2			lsh3			lsh4			ltoe			SBIKE			LBIKE			RBIKE			
		X1	Y1	Z1	X2	Y2	Z2	X3	Y3	Z3	X4	Y4	Z4	X5	Y5	Z5	X6	Y6	Z6	X7	Y7	Z7	X8	Y8	Z8	X9	Y9	Z9	X10	Y10	Z10	X11	Y11	Z11	X12	Y12	Z12	X13	Y13	Z13	X14	Y14	Z14	X15	Y15	Z15	X16	Y16	Z16	X17	Y17	Z17	X18	Y18	Z18	X19	Y19	Z19	X20	Y20	Z20	X21	Y21	Z21	X22	Y22	Z22	X23	Y23	Z23	X24	Y24	Z24	X25	Y25	Z25	X26	Y26	Z26	X27	Y27	Z27	X28	Y28	Z28	X29	Y29	Z29	X30	Y30	Z30	X31	Y31	Z31	X32	Y32	Z32	X33	Y33	Z33	X34	Y34	Z34	X35	Y35	Z35	X36	Y36	Z36	X37	Y37	Z37	X38	Y38	Z38	X39	Y39	Z39	X40	Y40	Z40	X41	Y41	Z41	X42	Y42	Z42	X43	Y43	Z43	X44	Y44	Z44	X45	Y45	Z45	X46	Y46	Z46	X47	Y47	Z47	X48	Y48	Z48	
1001	5.0050	527.804576	1349.722098	-44.770311	561.662199	1372.485094	-343.195014	495.487045	1435.384687	-202.234942	509.857478	1251.313857	-226.684865	541.801736	1086.471329	68.205525	770.984173	939.731014	-28.002211	563.881280	1130.924178	-544.099226	798.771892	932.310897	-441.822994	-80.202176	1213.948229	-269.740364	147.442586	1227.014190	-460.888105	120.506706	1228.728015	-54.321929	176.446818	1157.495754	-429.447783	146.990897	1183.806529	-107.839484	-43.515255	1291.123017	-218.477826	-36.997315	1281.350994	-314.109409	101.977266	1118.369552	-41.467485	46.185537	1082.738800	-465.604015	232.571272	1069.865369	-35.270948	320.920423	1070.387784	-44.233273	396.929920	1027.283092	-49.060760	330.006898	1104.434406	-53.680657	499.863033	993.777374	-61.681226	510.564457	974.293841	-196.053557	421.023253	865.045355	-57.071284	386.519230	786.195118	-78.037254	317.865113	733.020882	-82.464928	410.748326	773.601857	-106.311622	220.350726	631.070733	-98.190512	159.617319	649.920544	-148.466969	375.231803	461.290229	-136.303900	301.720158	481.329569	-69.136050	111.292492	948.472681	-481.484670	160.039179	878.394631	-476.495784	195.557781	890.142307	-473.509127	167.160356	789.683658	-461.870911	217.460348	660.507714	-430.582413	229.728267	657.303982	-300.324992	110.564676	240.842071	-406.442193	58.081616	193.308702	-372.779583	262.101504	154.547505	-443.824321	184.673901	540.790261	-449.499398	188.485165	455.793473	-433.356036	149.399420	376.938390	-428.614555	218.622398	453.022155	-410.018226	356.184242	186.016328	-376.087912	-204.783986	961.615239	-263.295506	1.394208	82.523337	-461.085592	-15.181551	81.280762	-62.606243	
1002	5.0100	527.230403	1349.401065	-42.816548	562.370962	1371.161194	-340.175760	496.141262	1434.001917	-200.305976	510.356267	1249.876213	-224.434612	542.538968	1086.715211	69.333785	771.095431	939.669501	-27.786606	565.846648	1132.218389	-543.810168	799.245172	932.154511	-441.741648	-80.178100	1216.383633	-271.048844	148.791429	1227.764516	-461.024804	118.915048	1230.590535	-54.451721	177.262231	1158.139396	-429.985506	145.075387	1185.859807	-108.108720	-43.376450	1293.631019	-219.797297	-36.278885	1283.528378	-315.477937	100.717945	1121.427576	-41.652270	45.776035	1083.912927	-465.973813	231.730211	1073.052575	-35.919589	320.208560	1073.644480	-45.838666	396.197924	1031.083736	-50.097684	329.052809	1108.298209	-54.447845	498.914556	999.320914	-62.741310	511.132841	979.730486	-197.313264	423.549692	868.382611	-57.703235	390.824765	788.590369	-78.385167	323.413078	733.722109	-82.473840	415.208855	776.544767	-106.790828	227.010390	629.540320	-97.921803	165.097852	646.936423	-147.918113	386.338132	464.264508	-135.962875	312.347260	482.219729	-68.770642	110.095308	949.788042	-482.650225	158.693484	879.657516	-478.151245	194.289421	891.205596	-475.819409	165.808298	790.917763	-463.538823	215.708152	661.653190	-432.585771	230.340278	658.474802	-302.798445	101.432205	243.978722	-406.754665	48.385561	197.261264	-372.829132	251.586088	154.999169	-444.130886	181.367403	542.267621	-451.062028	183.636431	457.251112	-434.705818	143.062500	379.142641	-429.477832	213.813869	453.959669	-411.399199	346.230091	184.768210	-376.474991	-204.699818	961.588254	-263.059208	1.385201	82.559773	-461.077064	-15.178870	81.321548	-62.608482	
1003	5.0150	526.967406	1348.890463	-41.073395	563.127401	1369.303018	-337.228947	496.868218	1432.481371	-198.469423	510.762600	1248.239224	-221.888731	543.359258	1086.839652	70.371647	771.245844	939.613711	-27.629190	567.717283	1133.393353	-543.819278	799.628188	931.915479	-441.738880	-80.005354	1218.913054	-272.248984	149.917532	1228.813702	-461.073950	117.421518	1232.649680	-54.601082	177.782686	1158.742697	-430.388370	143.304742	1187.608026	-108.511384	-43.108018	1296.417712	-220.814613	-35.661565	1285.867445	-316.634223	99.205619	1124.451459	-41.652035	45.369832	1085.458846	-466.566443	230.735525	1076.217275	-36.628562	319.252700	1076.260889	-47.385680	395.182685	1034.376441	-51.233903	327.916034	1111.758732	-55.101671	497.935608	1004.083072	-63.643982	511.262538	984.300856	-198.749722	425.704458	870.631734	-58.366406	394.673524	790.038697	-78.766607	328.471441	733.759534	-82.438806	419.092404	778.425769	-107.332035	233.633150	627.505605	-97.461580	170.778406	642.726700	-147.326573	397.219772	466.756903	-135.651126	322.780750	482.440121	-68.367592	109.153912	951.178877	-483.760871	157.847515	881.114901	-479.781765	193.444491	892.705907	-478.000286	165.210734	792.456910	-465.093148	215.108722	663.005886	-434.588372	231.730427	659.950027	-305.401538	92.497090	247.800305	-407.077808	38.810171	202.140508	-372.963090	241.218876	156.152978	-444.438406	178.836299	544.190551	-452.621660	179.266064	459.276841	-435.962097	137.004042	382.087142	-430.328456	209.508398	455.313460	-412.775162	336.411798	184.376819	-376.861223	-204.724264	961.613115	-263.064316	1.388517	82.603491	-461.070705	-15.179833	81.340446	-62.597165	
1004	5.0200	527.013129	1348.059841	-39.718387	563.839764	1366.776393	-334.266352	497.555158	1430.785079	-196.802132	510.952313	1246.348080	-218.945989	544.239424	1086.868626	71.406902	771.410480	939.539323	-27.461171	569.462855	1134.131637	-544.044857	799.883370	931.661869	-441.785912	-80.077153	1221.731296	-273.184409	150.763009	1229.477430	-460.916681	115.971875	1234.847293	-54.728469	178.308707	1159.496051	-431.017426	141.797830	1189.241663	-109.784713	-43.045698	1299.340275	-222.096711	-35.105614	1288.301368	-317.726739	97.563887	1127.150011	-41.463340	44.951829	1086.994902	-467.114041	229.473205	1079.117521	-36.877630	317.994192	1078.750518	-44.780246	393.842662	1036.951744	-52.367703	326.529591	1114.478550	-55.922683	496.727339	1007.876070	-64.557812	510.814979	987.857945	-200.175164	427.531329	871.635072	-59.110100	397.862618	790.503624	-79.078981	332.999968	732.663067	-82.361750	422.602449	779.188191	-107.846581	240.282382	624.736749	-95.986384	176.065041	637.636352	-146.624788	407.880084	468.660539	-135.303318	333.058538	481.879018	-67.981337	108.485600	952.543710	-484.674957	157.505622	882.762786	-481.169329	193.045130	894.454591	-479.997617	165.435282	793.971867	-466.622412	215.567453	664.661539	-436.578939	233.960136	661.775208	-307.911994	83.630891	252.513526	-407.592890	29.610420	207.780807	-373.177188	231.053841	157.851392	-444.668878	177.117357	546.708901	-454.253652	175.496010	461.726269	-437.312394	131.338420	385.652538	-431.310791	205.673806	457.084904	-414.235944	326.763683	184.263432	-377.134474	-204.733878	961.618504	-263.043334	1.444068	82.497007	-461.177249	-15.182152	81.367524	-62.596551	
1005	5.0250	527.308116	1347.057906	-38.687883	563.849284	1363.149743	-330.549125	498.219651	1428.974345	-195.211466	510.011489	1244.155358	-214.957102	545.118215	1086.827103	72.396263	771.597280	939.416685	-27.345350	571.067993	1134.758793	-544.539717	800.034367	931.492926	-442.063802	-79.917649	1224.396602	-274.041212	151.564263	1230.544042	-461.029956	114.618867	1236.902553	-54.884703	178.637088	1160.278173	-431.665730	140.255475	1190.765354	-110.196398	-42.749612	1302.082866	-222.962278	-34.537679	1290.782979	-318.631793	95.615524	1130.073211	-40.959141	44.417035	1088.460941	-467.753862	227.935297	1081.564832	-37.379922	316.422958	1081.556048	-46.211431	392.154909	1038.855981	-53.438722	325.014773	1116.633623	-56.988621	494.472709	1010.424783	-65.810890	509.788759	990.140573	-201.434760	428.974924	871.389616	-59.947428	400.769207	789.561235	-79.557944	337.060174	730.608263	-82.365737	425.603422	778.764148	-108.365758	246.083159	620.534707	-95.579369	181.152559	631.583601	-145.896859	418.310461	469.998219	-134.943278	343.194015	480.680750	-67.559546	108.177094	953.985857	-485.400866	157.728960	884.583065	-482.424167	193.175241	896.544679	-481.692831	166.420532	795.981360	-468.070457	217.171215	666.664320	-438.530168	236.991082	663.789174	-310.231099	75.518483	257.888171	-407.809738	20.740862	214.541395	-373.437473	221.039992	160.336117	-444.908431	176.158659	549.729798	-455.853853	172.332709	464.883865	-438.692168	126.183057	390.040541	-432.288998	202.487309	459.443341	-415.773323	317.367840	184.745745	-377.448478	-204.752237	961.636465	-263.056910	1.451388	82.532139	-461.155156	-15.190003	81.383825	-62.594884	
1006	5.0300	527.758683	1345.786870	-38.122781	564.572707	1359.920985	-327.823591	498.925637	1427.006600	-193.813390	510.033660	1241.967509	-211.821634	546.119314	1086.571126	73.315474	771.774815	939.221952	-27.177537	572.589621	1135.153632	-545.274266	800.102604	931.372820	-442.423077	-79.897269	1227.150787	-274.789175	152.193544	1231.462648	-461.211828	113.261258	1238.919146	-54.969093	178.839726	1161.096792	-432.450023	138.805374	1192.011549	-110.630861	-42.445008	1304.833722	-223.828236	-34.137176	1293.186477	-319.390999	93.679561	1132.454935	-40.558522	43.804736	1089.927307	-468.406794	226.080092	1083.585997	-38.038175	314.537452	1083.466754	-47.262939	390.121703	1039.860599	-54.504474	323.290569	1118.029883	-58.041972	492.378357	1011.449238	-67.219173	508.057512	991.002681	-202.730387	430.157583	869.844708	-60.706109	403.355470	787.542205	-79.964379	340.627958	727.447702	-82.396914	428.146413	777.187384	-108.997583	251.538483	615.353836	-95.125049	186.008795	624.460939	-145.063033	428.360756	470.749294	-134.635445	352.978575	478.753925	-67.138281	108.185145	955.509513	-486.121959	158.487227	886.605896	-483.461540	193.771424	898.899477	-483.112652	168.259285	797.961012	-469.434646	219.820424	669.006002	-440.359234	240.807601	666.111915	-312.504820	68.036540	264.260939	-408.420239	12.346024	222.173470	-373.814777	211.412454	163.510358	-445.138658	175.971125	553.286507	-457.514224	169.938663	468.497323	-440.000473	121.740190	395.005630	-433.391773	199.928381	462.271911	-416.836353	308.243520	185.655565	-377.694655	-204.764580	961.639016	-263.079437	1.419095	82.527573	-461.169044	-15.190295	81.410955	-62.596346	
1007	5.0350	528.300565	1344.220817	-37.938066	565.218433	1356.304285	-325.256001	499.564394	1425.035630	-192.581377	509.653827	1239.750849	-208.551930	547.165418	1086.324856	74.271209	771.954792	939.019641	-27.076048	574.033690	1135.369346	-546.247889	800.160184	931.276567	-442.767854	-79.769519	1229.840759	-275.511768	152.752820	1232.634180	-461.687694	112.015460	1240.565728	-55.324018	178.883249	1161.926840	-433.357374	137.282538	1193.091275	-109.866969	-42.708290	1307.767307	-225.015555	-34.055905	1295.852205	-320.354366	91.590123	1134.591671	-40.296638	43.077468	1091.254884	-469.094600	224.110461	1085.014753	-38.709230	312.484922	1084.372886	-48.192263	387.706232	1039.988626	-55.640974	321.457959	1118.707280	-59.104569	489.355820	1010.832296	-68.586641	505.560163	990.431242	-204.109325	431.046848	867.316003	-61.442683	405.536702	784.374021	-80.375690	343.809969	723.366460	-82.413518	430.178835	774.512199	-109.686160	256.648013	609.297140	-94.619781	190.152448	615.986392	-144.268980	438.012208	470.954131	-134.295057	362.366669	476.305467	-66.630786	108.706799	957.152620	-486.581883	159.814806	888.818373	-484.282272	194.848582	901.567594	-484.107580	170.867605	800.324955	-470.642917	223.383515	671.782648	-442.253501	245.205148	668.834206	-314.662405	60.975515	271.442803	-409.214806	4.438147	230.861823	-374.095682	202.028754	167.290541	-445.382015	176.339558	557.474451	-459.075103	168.202865	472.902085	-441.456541	118.114862	400.789233	-434.545565	198.085282	466.012130	-418.469424	299.404613	186.982993	-377.951679	-204.782851	961.604552	-263.115569	1.419344	82.567588	-461.180655	-15.206418	81.424215	-62.607560	
